<?xml version="1.0" encoding="UTF-8" standalone="no"?>
<!-- Created with Inkscape (http://www.inkscape.org/) -->

<svg
   width="300mm"
   height="200mm"
   viewBox="0 0 300 200"
   version="1.1"
   id="svg5"
   inkscape:version="1.2.2 (732a01da63, 2022-12-09, custom)"
   sodipodi:docname="gears.svg"
   xmlns:inkscape="http://www.inkscape.org/namespaces/inkscape"
   xmlns:sodipodi="http://sodipodi.sourceforge.net/DTD/sodipodi-0.dtd"
   xmlns="http://www.w3.org/2000/svg"
   xmlns:svg="http://www.w3.org/2000/svg">
  <sodipodi:namedview
     id="namedview7"
     pagecolor="#ffffff"
     bordercolor="#000000"
     borderopacity="0.25"
     inkscape:showpageshadow="2"
     inkscape:pageopacity="0.0"
     inkscape:pagecheckerboard="0"
     inkscape:deskcolor="#d1d1d1"
     inkscape:document-units="mm"
     showgrid="true"
     inkscape:zoom="0.27852385"
     inkscape:cx="-227.98765"
     inkscape:cy="263.89122"
     inkscape:window-width="1440"
     inkscape:window-height="836"
     inkscape:window-x="0"
     inkscape:window-y="0"
     inkscape:window-maximized="1"
     inkscape:current-layer="layer1">
    <inkscape:grid
       type="xygrid"
       id="grid9" />
  </sodipodi:namedview>
  <defs
     id="defs2" />
  <g
     inkscape:label="Layer 1"
     inkscape:groupmode="layer"
     id="layer1">
    <path
       id="path3085"
       style="fill:#3476d8;fill-opacity:1;stroke-width:0.264583"
       d="m 101.88101,145.2543 c -3.056648,-0.0727 -6.771588,0.60096 -11.131618,2.31252 -15.07344,5.91717 -9.98449,20.92654 1.09761,20.01739 8.453388,-0.69351 9.056348,7.05449 4.87516,10.3637 -9.38619,7.4287 -44.62364,20.26647 -44.62364,20.26647 l 27.00249,33.04088 16.30495,-7.01508 c -6.70772,-15.96245 29.365868,-29.98559 34.948768,0.8599 3.79943,30.17029 -23.25801,16.73747 -23.25801,16.73747 l -12.696898,7.50911 25.134378,32.59077 c 33.99883,-23.63486 62.7935,-41.35206 102.92964,-60.88724 l -21.4173,-22.44049 c 0,0 5.74305,-2.43597 10.31617,-4.50411 4.79748,2.11301 9.73708,2.56264 13.8069,1.25677 8.8015,-2.83411 11.23339,-12.95638 5.43171,-22.60844 -5.80148,-9.6521 -17.63953,-15.17896 -26.44076,-12.34448 -5.80779,1.87146 -9.072,7.06021 -8.51938,13.54234 -5.33488,2.66095 -11.07219,5.51749 -11.07219,5.51749 l -26.4511,-28.00708 c 0,0 -34.44649,17.37409 -43.04802,17.38189 -2.77989,0.002 -10.79289,-3.32042 -6.20479,-7.57215 6.45494,-5.9817 3.93256,-15.75784 -6.98407,-16.01763 z"
       sodipodi:nodetypes="ssssccccccccccccccccsss" />
    <path
       id="path3081"
       style="fill:#b1c8ef;fill-opacity:1;stroke-width:0.264583"
       d="m 104.55466,50.918038 c -3.05666,-0.0727 -6.771601,0.600967 -11.131621,2.312508 -15.07345,5.917147 -9.98451,20.92643 1.0976,20.017276 8.453391,-0.693507 9.056361,7.05446 4.87516,10.36365 -9.38618,7.428663 -44.62364,20.266408 -44.62364,20.266408 l 27.00248,33.04087 16.30496,-7.01508 c -6.70772,-15.96245 29.365961,-29.98558 34.948891,0.85989 3.79945,30.1703 -23.25814,16.73749 -23.25814,16.73749 l -12.696891,7.50911 25.134441,32.59073 c 33.99901,-23.63482 62.79368,-41.35202 102.92974,-60.8872 l -21.4173,-22.44049 c 0,0 5.74305,-2.43597 10.31617,-4.50412 4.79748,2.11302 9.73708,2.56264 13.8069,1.25677 8.8015,-2.834111 11.23339,-12.956338 5.43171,-22.608349 -5.80148,-9.652042 -17.63953,-15.178872 -26.44076,-12.344397 -5.80779,1.871438 -9.07198,7.060168 -8.51937,13.542251 -5.33485,2.660934 -11.07212,5.517467 -11.07212,5.517467 l -26.4511,-28.006927 c 0,0 -34.44665,17.373991 -43.04822,17.381791 -2.77991,0.002 -10.79294,-3.320402 -6.20482,-7.572108 6.45496,-5.981667 3.93257,-15.75774 -6.98407,-16.01754 z"
       sodipodi:nodetypes="ssssccccccccccccccccsss" />
    <path
       id="path3079"
       style="fill:#b1c8ef;fill-opacity:1;stroke-width:0.264583"
       d="m 230.66033,-38.065424 c -3.05666,-0.0727 -6.7716,0.600967 -11.13162,2.312508 -15.07345,5.917147 -9.98451,20.92643 1.0976,20.017276 8.45339,-0.693507 9.05636,7.0544595 4.87516,10.3636497 -9.38618,7.4286632 -44.62364,20.2664043 -44.62364,20.2664043 l 27.00248,33.040874 16.30496,-7.015081 c -6.70772,-15.96245 29.36596,-29.985579 34.94889,0.859894 3.79945,30.170299 -23.25814,16.737487 -23.25814,16.737487 l -12.69689,7.509108 25.13444,32.59073 C 282.31258,74.982605 311.10725,57.265404 351.24331,37.730225 l -21.4173,-22.440491 c 0,0 5.74305,-2.435968 10.31617,-4.504116 4.79748,2.113018 9.73708,2.562635 13.8069,1.256774 8.8015,-2.8341151 11.23339,-12.95634206 5.43171,-22.608353 -5.80148,-9.652042 -17.63953,-15.178872 -26.44076,-12.344397 -5.80779,1.871438 -9.07198,7.060168 -8.51937,13.5422508 -5.33485,2.6609335 -11.07212,5.5174671 -11.07212,5.5174671 l -26.4511,-28.0069269 c 0,0 -34.44665,17.373991 -43.04822,17.381791 -2.77991,0.002 -10.79294,-3.320402 -6.20482,-7.572108 6.45496,-5.981667 3.93257,-15.75774 -6.98407,-16.01754 z"
       sodipodi:nodetypes="ssssccccccccccccccccsss" />
    <path
       id="path3077"
       style="fill:#b1c8ef;fill-opacity:1;stroke-width:0.264583"
       d="m 93.886287,-22.98128 c -3.056658,-0.0727 -6.771597,0.600967 -11.131616,2.312508 -15.073448,5.917147 -9.984505,20.9264302 1.097599,20.0172762 8.453388,-0.693507 9.056358,7.0544594 4.875161,10.3636496 C 79.34125,17.140817 44.103788,29.978558 44.103788,29.978558 l 27.002487,33.040874 16.304956,-7.015081 c -6.70772,-15.96245 29.365959,-29.985579 34.948889,0.859894 3.79945,30.170299 -23.258136,16.737487 -23.258136,16.737487 L 86.405091,81.11084 111.53953,113.70157 C 145.53854,90.066749 174.33321,72.349548 214.46927,52.814369 l -21.4173,-22.440491 c 0,0 5.74305,-2.435968 10.31617,-4.504116 4.79748,2.113018 9.73708,2.562635 13.8069,1.256774 8.8015,-2.834115 11.23339,-12.956342 5.43171,-22.6083526 -5.80148,-9.6520422 -17.63953,-15.1788724 -26.44076,-12.3443972 -5.80779,1.871438 -9.07198,7.060168 -8.51937,13.5422507 -5.33485,2.6609335 -11.07212,5.5174671 -11.07212,5.5174671 l -26.4511,-28.006927 c 0,0 -34.44665,17.3739912 -43.04822,17.3817912 -2.77991,0.002 -10.792934,-3.320402 -6.20482,-7.572108 6.45496,-5.9816672 3.93257,-15.7577402 -6.984073,-16.0175402 z"
       sodipodi:nodetypes="ssssccccccccccccccccsss" />
    <path
       id="path3075"
       style="fill:#c0d3f2;fill-opacity:1;stroke-width:0.264583"
       d="m 51.02376,-22.98128 c -3.056658,-0.0727 -6.771597,0.600967 -11.131616,2.312508 -15.073448,5.917147 -9.984505,20.9264302 1.097599,20.0172762 8.453388,-0.693507 9.056358,7.0544594 4.875161,10.3636496 C 36.478723,17.140817 1.2412663,29.978558 1.2412663,29.978558 L 28.243748,63.019432 44.548704,56.004351 c -6.70772,-15.96245 29.365862,-29.985579 34.948762,0.859894 3.79943,30.170299 -23.258009,16.737487 -23.258009,16.737487 L 43.542564,81.11084 68.676936,113.70157 C 102.67577,90.066749 131.47044,72.349548 171.6065,52.814369 L 150.1892,30.373878 c 0,0 5.74305,-2.435968 10.31617,-4.504116 4.79748,2.113018 9.73708,2.562635 13.8069,1.256774 8.8015,-2.834115 11.23339,-12.956342 5.43171,-22.6083526 -5.80148,-9.6520422 -17.63953,-15.1788724 -26.44076,-12.3443972 -5.80779,1.871438 -9.07198,7.060168 -8.51937,13.5422507 -5.33485,2.6609335 -11.07212,5.5174671 -11.07212,5.5174671 l -26.4511,-28.006927 c 0,0 -34.446494,17.3739912 -43.048014,17.3817912 -2.7799,0.002 -10.792897,-3.320402 -6.20479,-7.572108 6.45493,-5.9816672 3.93255,-15.7577402 -6.984066,-16.0175402 z"
       sodipodi:nodetypes="ssssccccccccccccccccsss" />
    <path
       id="path3073"
       style="fill:#d8e4f7;fill-opacity:1;stroke-width:0.264583"
       d="m -27.687091,-26.938848 c -3.05666,-0.0727 -6.771601,0.600967 -11.131623,2.312508 -15.073449,5.917147 -9.984506,20.9264259 1.0976,20.0172726 8.453393,-0.6935068 9.056363,7.0544569 4.875163,10.3636471 C -42.232136,13.183245 -77.469593,26.02099 -77.469593,26.02099 l 27.002482,33.040874 16.30496,-7.015081 C -40.869875,36.084333 -4.7962845,22.061204 0.78661243,52.906677 4.5860403,83.076976 -22.471391,69.644164 -22.471391,69.644164 l -12.696901,7.509108 25.134381,32.590788 C 23.964907,86.109181 52.759577,68.39198 92.895502,48.856801 L 71.478322,26.41631 c 0,0 5.74302,-2.435968 10.316113,-4.504116 4.797453,2.113018 9.737026,2.562635 13.806822,1.256774 C 104.40273,20.334853 106.83462,10.21262 101.03294,0.56060943 95.23149,-9.0914277 83.393506,-14.618257 74.592327,-11.783782 c -5.80776,1.8714376 -9.071949,7.0601645 -8.519332,13.5422448 -5.33485,2.6609335 -11.072128,5.517467 -11.072128,5.517467 l -26.4511,-28.0069208 c 0,0 -34.4464805,17.373987 -43.047998,17.381787 -2.7799,0.002 -10.7929,-3.3204002 -6.20479,-7.572104 6.45493,-5.981667 3.93255,-15.75774 -6.98407,-16.01754 z"
       sodipodi:nodetypes="ssssccccccccccccccccsss" />
    <path
       id="path3071"
       style="fill:#b6cdf1;fill-opacity:1;stroke-width:0.264583"
       d="m 6.7087541,128.10723 c -3.0566585,-0.0727 -6.77159676,0.60097 -11.1316164,2.31252 -15.0734457,5.91718 -9.9845027,20.92655 1.0975997,20.01739 8.4533876,-0.69351 9.0563573,7.0545 4.8751594,10.36371 -9.3861793,7.42871 -44.6236348,20.26653 -44.6236348,20.26653 l 27.002482,33.04106 16.30495381,-7.01512 c -6.70771991,-15.96254 29.36586419,-29.98575 34.94876419,0.8599 3.79943,30.17047 -23.25801,16.73758 -23.25801,16.73758 l -12.69689463,7.50915 25.13437463,32.59092 c 33.99883,-23.63496 62.7935,-41.35226 102.929578,-60.88755 l -21.4173,-22.44062 c 0,0 5.74305,-2.43598 10.31617,-4.50414 4.79748,2.11303 9.73708,2.56265 13.8069,1.25678 8.8015,-2.83413 11.23339,-12.95642 5.43171,-22.60849 -5.80148,-9.6521 -17.63953,-15.17896 -26.44076,-12.34447 -5.80779,1.87145 -9.071997,7.06021 -8.51938,13.54233 -5.33485,2.66095 -11.072128,5.5175 -11.072128,5.5175 l -26.4511,-28.00709 c 0,0 -34.44649,17.37409 -43.04801,17.38189 -2.7799,0.002 -10.7928994,-3.32042 -6.20479,-7.57215 6.45493,-5.9817 3.93255,-15.75783 -6.9840679,-16.01763 z"
       sodipodi:nodetypes="ssssccccccccccccccccsss" />
    <path
       id="path3069"
       style="fill:#8cb1e9;fill-opacity:1;stroke-width:0.264583"
       d="m 263.9054,36.775463 c -3.05666,-0.07274 -6.7716,0.600964 -11.13162,2.31252 -15.07344,5.917176 -9.9845,20.926545 1.0976,20.017385 8.45339,-0.693503 9.05636,7.0545 4.87516,10.363715 -9.38618,7.428704 -44.62363,20.26653 -44.62363,20.26653 l 27.00248,33.041057 16.30495,-7.01512 c -6.70772,-15.962537 29.36587,-29.985747 34.94877,0.8599 3.79943,30.17047 -23.25801,16.73758 -23.25801,16.73758 l -12.6969,7.50915 25.13438,32.59092 c 33.99883,-23.63496 62.7935,-41.35226 102.92964,-60.88755 l -21.4173,-22.440617 c 0,0 5.74305,-2.43598 10.31617,-4.50414 4.79748,2.11303 9.73708,2.56265 13.8069,1.25678 8.8015,-2.83413 11.23339,-12.956419 5.43171,-22.608492 -5.80148,-9.652097 -17.63953,-15.178959 -26.44076,-12.344471 -5.80779,1.871447 -9.072,7.060207 -8.51938,13.542331 -5.33488,2.660953 -11.07219,5.517497 -11.07219,5.517497 l -26.4511,-28.007085 c 0,0 -34.44649,17.374086 -43.04801,17.381886 -2.7799,0.0025 -10.7929,-3.320415 -6.20479,-7.572149 6.45493,-5.981696 3.93255,-15.757833 -6.98407,-16.017627 z"
       sodipodi:nodetypes="ssssccccccccccccccccsss" />
    <path
       id="path3067"
       style="fill:#bfd4f3;fill-opacity:1;stroke-width:0.264583"
       d="m 186.8359,-13.718673 c -3.05666,-0.07274 -6.7716,0.600964 -11.13162,2.31252 -15.07344,5.9171733 -9.9845,20.9265333 1.0976,20.0173738 8.45339,-0.6935029 9.05636,7.0544992 4.87516,10.3637142 -9.38618,7.428704 -44.62363,20.266467 -44.62363,20.266467 l 27.00248,33.040877 16.30495,-7.015076 c -6.70772,-15.962452 29.36587,-29.985586 34.94877,0.859896 3.79943,30.170297 -23.25801,16.737477 -23.25801,16.737477 l -12.6969,7.50911 25.13438,32.590864 c 33.99883,-23.634954 62.7935,-41.352154 102.92964,-60.887333 l -21.4173,-22.440491 c 0,0 5.74305,-2.43597 10.31617,-4.504117 4.79748,2.113014 9.73708,2.56264 13.8069,1.25677 8.8015,-2.834106 11.23339,-12.956373 5.43171,-22.608446 -5.80148,-9.6520933 -17.63953,-15.1789521 -26.44076,-12.3444658 -5.80779,1.8714458 -9.072,7.0602027 -8.51938,13.5423258 -5.33488,2.660953 -11.07219,5.517497 -11.07219,5.517497 l -26.4511,-28.0070745 c 0,0 -34.44649,17.3740758 -43.04801,17.3818758 -2.7799,0.0025 -10.7929,-3.3204135 -6.20479,-7.5721447 6.45493,-5.9816922 3.93255,-15.7578256 -6.98407,-16.0176196 z"
       sodipodi:nodetypes="ssssccccccccccccccccsss" />
    <path
       id="path115"
       style="fill:#a6c3ee;stroke-width:0.264583;fill-opacity:1"
       d="m 76.176746,9.8826009 c -3.056655,-0.072743 -6.771595,0.6009641 -11.131621,2.3125201 -15.073437,5.917176 -9.984492,20.926542 1.097608,20.017383 8.45339,-0.693503 9.056353,7.054496 4.875154,10.363709 -9.386182,7.4287 -44.623632,20.266463 -44.623632,20.266463 l 27.002486,33.040877 16.304948,-7.015076 c -6.707717,-15.962452 29.36587,-29.985586 34.948771,0.859896 3.79943,30.170297 -23.258012,16.737477 -23.258012,16.737477 l -12.696899,7.50911 25.134383,32.59077 C 127.82876,122.93087 156.62343,105.21367 196.75957,85.678491 L 175.34227,63.238 c 0,0 5.74305,-2.43597 10.31617,-4.504117 4.79748,2.113014 9.73708,2.56264 13.8069,1.25677 8.8015,-2.834106 11.23339,-12.956371 5.43171,-22.608439 -5.80148,-9.652092 -17.63953,-15.178954 -26.44076,-12.344466 -5.80779,1.871447 -9.072,7.060205 -8.51938,13.542326 -5.33488,2.660951 -11.07219,5.517493 -11.07219,5.517493 l -26.4511,-28.007076 c 0,0 -34.446488,17.374084 -43.048015,17.381884 -2.779897,0.0025 -10.792896,-3.320414 -6.20479,-7.572147 6.454935,-5.981696 3.932556,-15.757833 -6.984069,-16.0176271 z"
       sodipodi:nodetypes="ssssccccccccccccccccsss" />
    <path
       id="path376"
       style="fill:#d3e2f7;stroke-width:0.264583;fill-opacity:1"
       d="m 145.87663,34.178207 c -3.05665,-0.07274 -6.77159,0.600964 -11.13162,2.31252 -15.07343,5.917176 -9.98449,20.926542 1.09761,20.017383 8.45339,-0.693503 9.05635,7.054496 4.87516,10.363709 -9.38619,7.4287 -44.623637,20.266463 -44.623637,20.266463 l 27.002487,33.040878 16.30495,-7.01508 c -6.70772,-15.962448 29.36587,-29.985588 34.94877,0.8599 3.79943,30.17029 -23.25801,16.73747 -23.25801,16.73747 l -12.6969,7.50911 25.13438,32.59077 c 33.99883,-23.63486 62.7935,-41.35206 102.92964,-60.88724 l -21.4173,-22.440488 c 0,0 5.74305,-2.43597 10.31617,-4.50411 4.79748,2.11301 9.73708,2.56264 13.8069,1.25677 8.8015,-2.83411 11.23339,-12.956374 5.43171,-22.608442 -5.80148,-9.652092 -17.63953,-15.178954 -26.44076,-12.344466 -5.80779,1.871447 -9.072,7.060205 -8.51938,13.542326 -5.33488,2.660951 -11.07219,5.517493 -11.07219,5.517493 l -26.4511,-28.007076 c 0,0 -34.44649,17.374084 -43.04802,17.381884 -2.77989,0.0025 -10.79289,-3.320414 -6.20479,-7.572147 6.45494,-5.981696 3.93256,-15.757833 -6.98407,-16.017627 z"
       sodipodi:nodetypes="ssssccccccccccccccccsss" />
    <path
       id="path378"
       style="fill:#89b0e9;stroke-width:0.264583;fill-opacity:1"
       d="m 73.353539,100.45026 c -3.05665,-0.0727 -6.77159,0.60096 -11.13162,2.31252 -15.07343,5.91717 -9.98449,20.92654 1.09761,20.01738 8.45339,-0.6935 9.05635,7.0545 4.87516,10.36371 -9.38619,7.4287 -44.623637,20.26646 -44.623637,20.26646 l 27.002487,33.04088 16.30495,-7.01508 c -6.70772,-15.96245 29.36587,-29.98559 34.948771,0.8599 3.79943,30.17029 -23.258011,16.73747 -23.258011,16.73747 l -12.6969,7.50911 25.13438,32.59077 C 125.00556,213.49852 153.80023,195.78132 193.93637,176.24614 l -21.4173,-22.44049 c 0,0 5.74305,-2.43597 10.31617,-4.50411 4.79748,2.11301 9.73708,2.56264 13.8069,1.25677 8.8015,-2.83411 11.23339,-12.95637 5.43171,-22.60844 -5.80148,-9.65209 -17.63953,-15.17895 -26.44076,-12.34447 -5.80779,1.87145 -9.072,7.06021 -8.51938,13.54233 -5.33488,2.66095 -11.07219,5.51749 -11.07219,5.51749 l -26.4511,-28.00707 c 0,0 -34.446491,17.37408 -43.048021,17.38188 -2.77989,0.002 -10.79289,-3.32041 -6.20479,-7.57215 6.45494,-5.98169 3.93256,-15.75783 -6.98407,-16.01762 z"
       sodipodi:nodetypes="ssssccccccccccccccccsss" />
    <path
       id="path380"
       style="fill:#a6c3ee;stroke-width:0.264583;fill-opacity:1"
       d="m 156.43255,111.83912 c -3.05665,-0.0727 -6.77159,0.60096 -11.13162,2.31252 -15.07344,5.91717 -9.98449,20.92654 1.09761,20.01739 8.45339,-0.69351 9.05635,7.05449 4.87516,10.3637 -9.38619,7.4287 -44.62364,20.26647 -44.62364,20.26647 l 27.00249,33.04088 16.30495,-7.01508 c -6.70772,-15.96245 29.36587,-29.98559 34.94877,0.8599 3.79943,30.17029 -23.25801,16.73747 -23.25801,16.73747 l -12.6969,7.50911 25.13438,32.59077 c 33.99883,-23.63486 62.7935,-41.35206 102.92964,-60.88724 l -21.4173,-22.44049 c 0,0 5.74305,-2.43597 10.31617,-4.50411 4.79748,2.11301 9.73708,2.56264 13.8069,1.25677 8.8015,-2.83411 11.23339,-12.95638 5.43171,-22.60844 -5.80148,-9.6521 -17.63953,-15.17896 -26.44076,-12.34448 -5.80779,1.87146 -9.072,7.06021 -8.51938,13.54234 -5.33488,2.66095 -11.07219,5.51749 -11.07219,5.51749 l -26.4511,-28.00708 c 0,0 -34.44649,17.37409 -43.04802,17.38189 -2.77989,0.002 -10.79289,-3.32042 -6.20479,-7.57215 6.45494,-5.9817 3.93256,-15.75784 -6.98407,-16.01763 z"
       sodipodi:nodetypes="ssssccccccccccccccccsss" />
    <path
       id="path382"
       style="fill:#a6c3ee;stroke-width:0.264583;fill-opacity:1"
       d="m 218.64064,98.230117 c -3.05665,-0.0727 -6.77159,0.60096 -11.13162,2.312523 -15.07344,5.91717 -9.98449,20.92654 1.09761,20.01739 8.45339,-0.69351 9.05635,7.05449 4.87516,10.3637 -9.38619,7.4287 -44.62364,20.26647 -44.62364,20.26647 l 27.00249,33.04088 16.30495,-7.01508 c -6.70772,-15.96245 29.36587,-29.98559 34.94877,0.8599 3.79943,30.17029 -23.25801,16.73747 -23.25801,16.73747 l -12.6969,7.50911 25.13438,32.59077 c 33.99883,-23.63486 62.7935,-41.35206 102.92964,-60.88724 l -21.4173,-22.44049 c 0,0 5.74305,-2.43597 10.31617,-4.50411 4.79748,2.11301 9.73708,2.56264 13.8069,1.25677 8.8015,-2.83411 11.23339,-12.95638 5.43171,-22.60844 -5.80148,-9.6521 -17.63953,-15.17896 -26.44076,-12.34448 -5.80779,1.87146 -9.072,7.06021 -8.51938,13.54234 -5.33488,2.66095 -11.07219,5.51749 -11.07219,5.51749 l -26.4511,-28.00708 c 0,0 -34.44649,17.37409 -43.04802,17.38189 -2.77989,0.002 -10.79289,-3.32042 -6.20479,-7.57215 6.45494,-5.9817 3.93256,-15.757843 -6.98407,-16.017633 z"
       sodipodi:nodetypes="ssssccccccccccccccccsss" />
    <path
       id="path384"
       style="fill:#d3e2f7;stroke-width:0.264583;fill-opacity:1"
       d="m -17.560513,84.444762 c -3.05665,-0.0727 -6.77159,0.60096 -11.13162,2.312523 -15.07344,5.91717 -9.98449,20.926545 1.09761,20.017395 8.45339,-0.69351 9.05635,7.05449 4.87516,10.3637 -9.38619,7.4287 -44.62364,20.26647 -44.62364,20.26647 l 27.00249,33.04088 16.30495,-7.01508 c -6.70772,-15.96245 29.3658701,-29.98559 34.94877,0.8599 3.79943,30.17028 -23.25801,16.73746 -23.25801,16.73746 l -12.6969,7.50911 25.1343801,32.59077 C 34.091507,197.49303 62.886177,179.77583 103.02232,160.24066 L 81.605017,137.80017 c 0,0 5.74305,-2.43597 10.31617,-4.50411 4.79748,2.11301 9.737083,2.56264 13.806903,1.25677 8.8015,-2.83411 11.23339,-12.95638 5.43171,-22.60844 -5.80148,-9.6521 -17.639533,-15.178965 -26.440763,-12.344485 -5.80779,1.871465 -9.072,7.060215 -8.51938,13.542345 -5.33488,2.66095 -11.07219,5.51749 -11.07219,5.51749 l -26.4511,-28.007085 c 0,0 -34.4464899,17.374095 -43.0480196,17.381895 -2.77989,0.002 -10.7928904,-3.32042 -6.2047904,-7.57215 6.4549404,-5.981705 3.9325604,-15.757848 -6.98407,-16.017638 z"
       sodipodi:nodetypes="ssssccccccccccccccccsss" />
    <path
       id="path386"
       style="fill:#6b9ce3;stroke-width:0.264583;fill-opacity:1"
       d="m 215.42695,122.37613 c -3.05665,-0.0727 -6.77159,0.60096 -11.13162,2.31253 -15.07344,5.91717 -9.98449,20.92654 1.09761,20.01739 8.45339,-0.69351 9.05635,7.05449 4.87516,10.3637 -9.38619,7.4287 -44.62364,20.26647 -44.62364,20.26647 l 27.00249,33.04088 16.30495,-7.01508 c -6.70772,-15.96245 29.36587,-29.98559 34.94877,0.8599 3.79943,30.17028 -23.25801,16.73746 -23.25801,16.73746 l -12.6969,7.50911 25.13438,32.59077 c 33.99883,-23.63486 62.7935,-41.35206 102.92964,-60.88723 l -21.4173,-22.44049 c 0,0 5.74305,-2.43597 10.31617,-4.50411 4.79748,2.11301 9.73708,2.56264 13.8069,1.25677 8.8015,-2.83411 11.23339,-12.95638 5.43171,-22.60844 -5.80148,-9.6521 -17.63953,-15.17896 -26.44076,-12.34448 -5.80779,1.87146 -9.072,7.06021 -8.51938,13.54234 -5.33488,2.66095 -11.07219,5.51749 -11.07219,5.51749 l -26.4511,-28.00708 c 0,0 -34.44649,17.37409 -43.04802,17.38189 -2.77989,0.002 -10.79289,-3.32042 -6.20479,-7.57215 6.45494,-5.9817 3.93256,-15.75785 -6.98407,-16.01764 z"
       sodipodi:nodetypes="ssssccccccccccccccccsss" />
    <path
       id="path388"
       style="fill:#c5d8f3;stroke-width:0.264583;fill-opacity:1"
       d="m -1.6180045,50.012077 c -3.05665,-0.07274 -6.77159,0.600964 -11.1316205,2.31252 -15.07343,5.917176 -9.98449,20.926542 1.09761,20.017383 8.4533905,-0.693503 9.0563505,7.054496 4.8751605,10.363709 -9.3861905,7.4287 -44.6236405,20.266461 -44.6236405,20.266461 l 27.00249,33.04088 16.3049505,-7.01508 C -14.800775,113.0355 21.272816,99.012362 26.855716,129.85785 30.655145,160.02814 3.5977055,146.59532 3.5977055,146.59532 l -12.6969,7.50911 25.1343805,32.59077 C 50.034015,163.06034 78.828685,145.34314 118.96483,125.80796 L 97.547525,103.36747 c 0,0 5.743055,-2.43597 10.316175,-4.504108 4.79748,2.113008 9.73708,2.562638 13.8069,1.256768 8.8015,-2.834108 11.23339,-12.956372 5.43171,-22.60844 -5.80148,-9.652092 -17.63953,-15.178954 -26.44076,-12.344466 -5.807795,1.871447 -9.072005,7.060205 -8.519385,13.542326 -5.33488,2.660951 -11.07219,5.517493 -11.07219,5.517493 l -26.4511,-28.007076 c 0,0 -34.446489,17.374084 -43.048019,17.381884 -2.77989,0.0025 -10.79289051,-3.320414 -6.2047905,-7.572147 6.4549405,-5.981696 3.9325605,-15.757833 -6.98407,-16.017627 z"
       sodipodi:nodetypes="ssssccccccccccccccccsss" />
    <path
       id="path3083"
       style="fill:#9bb9eb;fill-opacity:1;stroke-width:0.264583"
       d="m 228.93484,68.046798 c -3.05666,-0.0727 -6.7716,0.600967 -11.13162,2.312508 -15.07345,5.917147 -9.98451,20.92643 1.0976,20.017276 8.45339,-0.693507 9.05636,7.05446 4.87516,10.363648 -9.38618,7.42867 -44.62364,20.26641 -44.62364,20.26641 l 27.00248,33.04087 16.30496,-7.01508 c -6.70772,-15.96245 29.36596,-29.98558 34.94889,0.85989 3.79945,30.1703 -23.25814,16.73749 -23.25814,16.73749 l -12.69689,7.50911 25.13444,32.59073 c 33.99901,-23.63482 62.79368,-41.35202 102.92974,-60.8872 l -21.4173,-22.44049 c 0,0 5.74305,-2.43597 10.31617,-4.50412 4.79748,2.11302 9.73708,2.56264 13.8069,1.25677 8.8015,-2.83411 11.23339,-12.95634 5.43171,-22.608349 -5.80148,-9.652042 -17.63953,-15.178872 -26.44076,-12.344397 -5.80779,1.871438 -9.07198,7.060168 -8.51937,13.542251 -5.33485,2.660934 -11.07212,5.517465 -11.07212,5.517465 l -26.4511,-28.006925 c 0,0 -34.44665,17.373991 -43.04822,17.381791 -2.77991,0.002 -10.79294,-3.320402 -6.20482,-7.572108 6.45496,-5.981667 3.93257,-15.75774 -6.98407,-16.01754 z"
       sodipodi:nodetypes="ssssccccccccccccccccsss" />
  </g>
  <g
     inkscape:groupmode="layer"
     id="layer2"
     inkscape:label="Layer 2">
    <g
       id="g934"
       style="fill:#00002c;fill-opacity:1"
       transform="translate(-5.3063577,3.7886621)">
      <path
         id="path579"
         style="fill:#00002c;fill-opacity:1;stroke-width:0.337169"
         d="M 126.11102,29.966817 V 41.311861 A 65.882774,66.619133 0 0 0 94.414759,54.97511 l -8.4,-8.400004 -11.70627,11.706262 8.57467,8.574671 a 65.882774,66.619133 0 0 0 -12.93357,31.521585 h -12.24939 v 16.555066 h 12.11296 a 65.882774,66.619133 0 0 0 12.55221,32.0399 l -8.05688,8.05687 11.70627,11.70627 7.72562,-7.72563 a 65.882774,66.619133 0 0 0 32.370641,14.21515 v 10.11876 h 16.55506 v -9.93066 a 65.882774,66.619133 0 0 0 33.10289,-13.67151 l 6.99389,6.99389 11.70626,-11.70627 -7.105,-7.10499 a 65.882774,66.619133 0 0 0 13.24726,-32.99178 h 10.46603 V 98.377624 h -10.5761 A 65.882774,66.619133 0 0 0 186.84839,65.902092 l 7.62073,-7.620724 -11.70626,-11.706262 -7.67137,7.671366 A 65.882774,66.619133 0 0 0 142.66608,41.082418 V 29.966817 Z m 9.10125,29.929956 a 46.848156,47.371769 0 0 1 46.8483,47.371777 46.848156,47.371769 0 0 1 -46.8483,47.37179 46.848156,47.371769 0 0 1 -46.848301,-47.37179 46.848156,47.371769 0 0 1 46.848301,-47.371777 z m 0,6.374805 a 40.54393,40.997082 0 0 0 -40.543781,40.996972 40.54393,40.997082 0 0 0 40.543781,40.99698 40.54393,40.997082 0 0 0 40.54378,-40.99698 40.54393,40.997082 0 0 0 -40.54378,-40.996972 z m 0,8.738485 a 31.901833,32.258392 0 0 1 31.90193,32.258487 31.901833,32.258392 0 0 1 -31.90193,32.2585 31.901833,32.258392 0 0 1 -31.90193,-32.2585 31.901833,32.258392 0 0 1 31.90193,-32.258487 z" />
      <path
         id="path821"
         style="fill:#00002c;fill-opacity:1;stroke-width:0.264583"
         d="m 39.322005,7.6630222 v 8.6206618 a 26.578014,26.578014 0 0 0 -9.37307,3.840592 l -6.0663,-6.066296 -7.506,7.506001 6.03943,6.039425 a 26.578014,26.578014 0 0 0 -3.90829,9.399943 H 9.9811638 v 10.614856 h 8.5198912 a 26.578014,26.578014 0 0 0 3.90105,9.413896 l -6.02547,6.025472 7.506,7.506001 6.04408,-6.044075 a 26.578014,26.578014 0 0 0 9.39529,3.854545 v 8.585006 h 10.61486 v -8.622213 a 26.578014,26.578014 0 0 0 9.31933,-3.893302 l 6.12004,6.120039 7.506,-7.506001 -6.1464,-6.146395 a 26.578014,26.578014 0 0 0 3.82509,-9.292973 h 8.71627 V 37.003349 h -8.70852 a 26.578014,26.578014 0 0 0 -3.83904,-9.286772 l 6.1526,-6.152596 -7.506,-7.506001 -6.13606,6.136059 a 26.578014,26.578014 0 0 0 -9.30331,-3.887617 V 7.6630222 Z m 5.20899,21.2116238 a 13.454477,13.454477 0 0 1 13.45447,13.454476 13.454477,13.454477 0 0 1 -13.45447,13.454476 13.454477,13.454477 0 0 1 -13.45448,-13.454476 13.454477,13.454477 0 0 1 13.45448,-13.454476 z" />
      <path
         id="path929"
         style="fill:#00002c;fill-opacity:1;stroke-width:0.373508"
         d="m 244.47905,88.940633 v 12.169637 a 37.519741,37.519741 0 0 0 -13.2318,5.4217 l -8.5637,-8.563677 -10.5961,10.596087 8.52577,8.52575 a 37.519741,37.519741 0 0 0 -5.51727,13.26975 h -12.03687 v 14.98481 h 12.02739 a 37.519741,37.519741 0 0 0 5.50704,13.28945 l -8.50606,8.50606 10.5961,10.59609 8.53233,-8.53232 a 37.519741,37.519741 0 0 0 13.26317,5.4414 v 12.11931 h 14.98483 v -12.17184 a 37.519741,37.519741 0 0 0 13.15594,-5.49611 l 8.63956,8.63956 10.5961,-10.59609 -8.67678,-8.67676 a 37.519741,37.519741 0 0 0 5.39982,-13.11875 h 12.30461 v -14.98481 h -12.29367 a 37.519741,37.519741 0 0 0 -5.41951,-13.10998 l 8.68553,-8.68552 -10.5961,-10.596087 -8.66218,8.662177 a 37.519741,37.519741 0 0 0 -13.13332,-5.4881 V 88.940633 Z m 7.35345,29.944087 a 18.993462,18.993462 0 0 1 18.99345,18.99347 18.993462,18.993462 0 0 1 -18.99345,18.99347 18.993462,18.993462 0 0 1 -18.99346,-18.99347 18.993462,18.993462 0 0 1 18.99346,-18.99347 z" />
    </g>
  </g>
</svg>